<svg xmlns="http://www.w3.org/2000/svg" version="1.1" xmlns:xlink="http://www.w3.org/1999/xlink" xmlns:svgjs="http://svgjs.com/svgjs" width="300" height="550" preserveAspectRatio="none" viewBox="0 0 300 550"><defs><mask id="SvgjsMask1121"><rect width="300" height="550" fill="#ffffff"></rect></mask><linearGradient x1="-20.83%" y1="11.36%" x2="120.83%" y2="88.64%" gradientUnits="userSpaceOnUse" id="SvgjsLinearGradient1122"><stop stop-color="#0e2a47" offset="0"></stop><stop stop-color="#00459e" offset="1"></stop></linearGradient><style>
            @keyframes float1 {
                0%{transform: translate(0, 0)}
                50%{transform: translate(-10px, 0)}
                100%{transform: translate(0, 0)}
            }

            .triangle-float1 {
                animation: float1 5s infinite;
            }

            @keyframes float2 {
                0%{transform: translate(0, 0)}
                50%{transform: translate(-5px, -5px)}
                100%{transform: translate(0, 0)}
            }

            .triangle-float2 {
                animation: float2 4s infinite;
            }

            @keyframes float3 {
                0%{transform: translate(0, 0)}
                50%{transform: translate(0, -10px)}
                100%{transform: translate(0, 0)}
            }

            .triangle-float3 {
                animation: float3 6s infinite;
            }
        </style></defs><g mask="url(&quot;#SvgjsMask1121&quot;)" fill="none"><rect width="300" height="550" x="0" y="0" fill="url(#SvgjsLinearGradient1122)"></rect><path d="M115.42662759774878-10.236686279529502L98.21722821332196 16.263464880841603 146.57215464609203 28.82748837729627z" fill="rgba(28, 83, 142, 0.4)" class="triangle-float3"></path><path d="M129.228,437.636C148.158,437.399,163.41,423.571,172.398,406.91C180.895,391.158,180.748,372.864,172.827,356.814C163.747,338.415,149.743,319.795,129.228,319.434C108.311,319.066,92.377,336.587,82.888,355.231C74.331,372.043,74.896,391.574,84.142,408.016C93.589,424.815,109.957,437.878,129.228,437.636" fill="rgba(28, 83, 142, 0.4)" class="triangle-float3"></path><path d="M243.7475638171751 113.45273070976619L285.2144984985504 78.65784111257173 212.28869676207108 33.854883889105906z" fill="rgba(28, 83, 142, 0.4)" class="triangle-float2"></path><path d="M142.57257359650148 67.38815355934334L179.5591704074416 139.97843702337764 252.1494538714759 102.99184021243755 215.1628570605358 30.40155674840323z" fill="rgba(28, 83, 142, 0.4)" class="triangle-float2"></path><path d="M321.446,470.953C353.48,469.987,374.512,440.787,389.426,412.42C403.071,386.467,409.79,356.023,395.259,330.556C380.618,304.896,350.988,293.536,321.446,293.278C291.383,293.016,261.049,303.598,245.37,329.249C229.067,355.92,231.192,389.202,245.978,416.743C261.681,445.991,288.264,471.953,321.446,470.953" fill="rgba(28, 83, 142, 0.4)" class="triangle-float3"></path><path d="M129.583,598.302C153.188,598.655,178.801,596.231,192.024,576.674C206.633,555.068,206.994,526.041,193.555,503.689C180.479,481.94,154.956,472.391,129.583,472.817C105.017,473.229,81.57,484.534,69.227,505.777C56.827,527.118,56.81,554.18,70.295,574.853C82.74,593.931,106.808,597.961,129.583,598.302" fill="rgba(28, 83, 142, 0.4)" class="triangle-float2"></path><path d="M128.11734668462847 70.00803690539918L86.15653888843056 60.32062111132355 92.60581909541608 128.10554070265823z" fill="rgba(28, 83, 142, 0.4)" class="triangle-float3"></path><path d="M97.577377904933 2.384566206374677L70.61631330399194 29.345630807315725 124.53844250587404 56.30669540825677z" fill="rgba(28, 83, 142, 0.4)" class="triangle-float3"></path><path d="M96.35058721838172 415.29904982702215L132.54505274728731 382.70940668359674 99.95540960386194 346.5149411546912 63.76094407495634 379.10458429811655z" fill="rgba(28, 83, 142, 0.4)" class="triangle-float1"></path><path d="M40.886,559.48C55.987,558.506,67.968,548.306,75.633,535.259C83.422,522.001,87.629,505.962,80.255,492.468C72.627,478.509,56.793,471.668,40.886,471.674C24.99,471.68,10.074,479.07,1.566,492.497C-7.611,506.979,-11.281,525.52,-2.602,540.306C5.994,554.949,23.941,560.573,40.886,559.48" fill="rgba(28, 83, 142, 0.4)" class="triangle-float2"></path><path d="M65.057,373.824C73.816,373.648,83.067,371.461,87.476,363.89C91.906,356.282,89.579,346.954,85.126,339.359C80.734,331.868,73.738,325.83,65.057,325.65C56.091,325.464,48.181,330.851,43.491,338.495C38.549,346.549,36.093,356.761,41.016,364.826C45.794,372.654,55.888,374.009,65.057,373.824" fill="rgba(28, 83, 142, 0.4)" class="triangle-float3"></path><path d="M193.126,66.182C209.075,67.209,226.064,61.773,233.938,47.865C241.728,34.106,237.006,17.197,228.353,3.964C220.572,-7.936,207.343,-14.67,193.126,-14.551C179.126,-14.433,165.8,-7.639,158.909,4.547C152.117,16.558,153.807,31.073,160.504,43.137C167.43,55.612,178.886,65.265,193.126,66.182" fill="rgba(28, 83, 142, 0.4)" class="triangle-float1"></path><path d="M213.05470487698943 120.38285043387944L169.88105751901276 120.38285043387944 191.46788119800112 185.14332147084446z" fill="rgba(28, 83, 142, 0.4)" class="triangle-float1"></path><path d="M174.4135953559195 285.3802041006845L79.45432178976296 293.596880700434 126.04600212048703 362.67188741618827z" fill="rgba(28, 83, 142, 0.4)" class="triangle-float1"></path><path d="M161.4032091601015 235.8911354882989L145.25304427017448 265.0268042052351 197.03162979054235 274.6842171816576z" fill="rgba(28, 83, 142, 0.4)" class="triangle-float1"></path><path d="M116.616,438.332C138.748,438.976,163.424,439.026,176.075,420.856C190.193,400.58,189.367,373.054,176.93,351.705C164.573,330.494,141.158,318.242,116.616,318.793C92.991,319.323,72.114,333.557,60.817,354.313C50.009,374.171,50.351,398.73,62.859,417.564C74.249,434.715,96.036,437.734,116.616,438.332" fill="rgba(28, 83, 142, 0.4)" class="triangle-float3"></path><path d="M14.241691332947733 109.91757271576753L-23.0350730124605 145.91532560525684 12.962679877028807 183.19208995066506 50.23944422243704 147.19433706117576z" fill="rgba(28, 83, 142, 0.4)" class="triangle-float3"></path></g></svg>